<?xml version="1.0" standalone="no"?>
<!DOCTYPE svg PUBLIC "-//W3C//DTD SVG 20010904//EN"
 "http://www.w3.org/TR/2001/REC-SVG-20010904/DTD/svg10.dtd">
<svg version="1.0" xmlns="http://www.w3.org/2000/svg"
 width="800.000000pt" height="600.000000pt" viewBox="0 0 800.000000 600.000000"
 preserveAspectRatio="xMidYMid meet">

<g transform="translate(0.000000,600.000000) scale(0.100000,-0.100000)"
fill="#000000" stroke="none">
<path d="M3441 3855 l-87 -85 -118 0 c-81 0 -125 -4 -144 -14 -15 -8 -71 -59
-124 -114 -94 -95 -98 -101 -98 -143 0 -24 -4 -50 -8 -57 -5 -7 -87 -39 -183
-72 -96 -33 -179 -67 -186 -77 -8 -9 -13 -46 -13 -83 0 -76 7 -86 80 -113 63
-23 82 -22 199 18 71 24 103 30 106 22 2 -7 6 -40 9 -73 l5 -61 -79 -74 c-87
-81 -110 -117 -110 -176 0 -52 21 -78 77 -97 83 -28 87 -26 209 95 l112 111
123 -41 c68 -22 133 -41 145 -41 13 0 87 67 215 195 184 185 194 198 199 240
5 40 15 54 107 148 57 57 105 115 108 130 4 15 5 61 3 103 l-3 75 -136 135
-135 134 -94 0 -93 0 -86 -85z m386 -77 l123 -123 0 -84 0 -84 -87 -88 c-48
-49 -90 -89 -95 -89 -4 0 -8 11 -8 24 0 14 -4 28 -10 31 -6 4 -10 -26 -10 -81
l0 -88 -187 -188 c-103 -103 -194 -188 -203 -188 -15 0 -231 69 -239 77 -3 2
5 13 17 25 l22 22 65 -21 c36 -12 67 -17 70 -13 7 11 2 13 -64 35 l-53 17 61
62 c34 34 58 65 54 69 -4 4 -104 -89 -223 -208 l-216 -215 -55 18 -54 19 -3
53 -3 53 212 213 c208 208 234 244 183 244 -10 0 -121 -34 -247 -76 -240 -80
-267 -84 -333 -53 -26 13 -29 20 -32 70 -2 37 2 59 10 66 7 6 153 56 323 113
171 56 320 109 333 116 17 12 22 24 22 59 0 25 -4 45 -10 45 -5 0 -10 -17 -10
-39 0 -21 -6 -43 -12 -48 -7 -6 -65 -27 -128 -48 -63 -21 -121 -40 -127 -43
-9 -3 -13 10 -13 43 0 47 2 49 102 151 l102 104 172 0 c105 0 175 4 179 10 4
6 -7 10 -24 10 -17 0 -31 3 -31 7 0 4 30 38 67 75 l67 68 86 0 85 0 122 -122z
m-732 -568 c-21 -22 -46 -40 -54 -40 -8 0 -11 -3 -7 -7 10 -11 -105 -122 -120
-116 -21 8 -18 96 4 122 15 19 165 78 202 80 8 1 -3 -16 -25 -39z"/>
</g>
</svg>
