<?xml version="1.0" standalone="no"?>
<!DOCTYPE svg PUBLIC "-//W3C//DTD SVG 20010904//EN"
 "http://www.w3.org/TR/2001/REC-SVG-20010904/DTD/svg10.dtd">
<svg version="1.0" xmlns="http://www.w3.org/2000/svg"
 width="800.000000pt" height="600.000000pt" viewBox="0 0 800.000000 600.000000"
 preserveAspectRatio="xMidYMid meet">

<g transform="translate(0.000000,600.000000) scale(0.100000,-0.100000)"
fill="#000000" stroke="none">
<path d="M3360 3840 c-8 -5 -49 -43 -91 -84 l-76 -76 -198 0 -198 0 -118 -116
c-99 -98 -119 -123 -124 -155 -10 -58 3 -99 36 -118 16 -9 29 -24 29 -34 0 -9
9 -25 20 -34 16 -14 20 -30 20 -74 0 -41 5 -63 20 -82 11 -14 20 -36 20 -50 0
-35 19 -85 36 -91 8 -3 14 -19 14 -39 0 -20 7 -40 18 -49 25 -22 418 -151 440
-144 10 3 104 93 210 199 183 184 192 195 192 232 0 36 8 47 104 145 59 60
107 117 111 133 4 15 5 61 3 103 l-3 75 -136 135 -135 134 -90 0 c-49 0 -96
-4 -104 -10z m302 -147 l128 -127 0 -81 0 -80 -95 -95 c-94 -94 -95 -94 -95
-62 0 17 -4 32 -10 32 -6 0 -10 -36 -10 -87 l0 -87 -190 -190 -190 -191 -207
70 c-199 67 -208 71 -211 98 -2 18 1 27 10 27 8 0 81 -22 163 -50 82 -27 156
-50 164 -50 36 0 -16 22 -179 75 -96 32 -181 62 -187 67 -14 11 -18 88 -5 88
4 0 88 -27 187 -60 164 -55 204 -64 179 -41 -5 5 -100 39 -211 76 l-203 67 0
59 c0 32 1 59 3 59 1 0 96 -31 210 -69 114 -38 209 -66 212 -61 7 12 13 10
-230 90 -121 39 -226 77 -233 83 -10 8 -13 31 -10 84 l3 73 55 55 c31 32 63
55 75 55 12 0 68 -16 125 -35 106 -36 135 -42 126 -26 -8 12 -236 85 -260 83
-23 -1 -111 -85 -132 -124 -8 -15 -14 -43 -14 -63 0 -29 -3 -36 -17 -33 -14 2
-19 15 -21 55 l-3 51 93 94 c138 139 104 128 381 128 156 0 236 3 232 10 -3 6
-18 10 -33 10 -25 0 -21 6 49 75 l76 75 73 0 73 0 129 -127z"/>
<path d="M3108 3460 c-3 -88 -4 -90 -40 -127 l-38 -37 -113 37 c-123 40 -127
41 -127 28 0 -8 212 -81 237 -81 18 0 72 49 88 81 17 31 21 174 6 183 -5 3
-11 -34 -13 -84z"/>
</g>
</svg>
