<?xml version="1.0" standalone="no"?>
<!DOCTYPE svg PUBLIC "-//W3C//DTD SVG 20010904//EN"
 "http://www.w3.org/TR/2001/REC-SVG-20010904/DTD/svg10.dtd">
<svg version="1.0" xmlns="http://www.w3.org/2000/svg"
 width="800.000000pt" height="600.000000pt" viewBox="0 0 800.000000 600.000000"
 preserveAspectRatio="xMidYMid meet">

<g transform="translate(0.000000,600.000000) scale(0.100000,-0.100000)"
fill="#000000" stroke="none">
<path d="M3525 3950 l-55 -50 -182 0 -182 0 -113 -113 -113 -113 0 -62 c0 -64
20 -102 55 -102 8 0 15 -5 15 -11 0 -7 -96 -107 -213 -224 -118 -117 -221
-223 -230 -236 -19 -26 -23 -109 -7 -139 6 -11 39 -28 83 -42 41 -12 81 -32
92 -45 21 -24 92 -53 130 -53 13 0 38 12 55 27 l32 27 17 -23 c19 -24 102 -53
129 -44 9 3 36 24 59 46 41 40 43 40 62 23 11 -10 39 -20 63 -23 l43 -4 278
278 278 279 8 53 c8 50 14 59 110 155 l101 101 0 91 c0 74 -3 94 -17 106 -17
15 -405 148 -430 148 -7 0 -38 -22 -68 -50z m275 -51 c102 -34 191 -66 198
-72 7 -6 12 -35 12 -80 l0 -70 -100 -101 -100 -101 0 38 c0 23 -4 36 -10 32
-5 -3 -10 -45 -10 -93 l0 -86 -262 -264 c-145 -145 -271 -268 -280 -273 -13
-7 -27 -5 -48 6 -24 12 -30 22 -30 48 0 27 16 47 107 139 59 59 104 111 100
115 -10 10 -227 -208 -227 -228 0 -16 -111 -129 -128 -129 -19 0 -77 24 -84
34 -4 6 -8 29 -8 50 0 37 8 47 142 183 78 78 138 146 135 150 -11 10 -276
-256 -292 -292 -8 -16 -32 -48 -54 -69 -42 -41 -64 -44 -133 -17 -26 10 -28
15 -28 63 l0 53 161 161 c89 89 157 164 152 167 -13 8 -333 -315 -333 -335 0
-8 -9 -23 -19 -33 -19 -16 -23 -16 -75 0 l-56 18 0 56 0 56 342 342 c188 188
339 345 335 349 -4 4 -51 -37 -106 -91 l-99 -97 -44 14 c-42 14 -43 16 -46 63
l-3 48 108 109 108 108 183 0 183 0 47 45 c26 24 54 45 62 45 8 0 98 -28 200
-61z"/>
</g>
</svg>
